<?xml version="1.0" standalone="no"?>
<!DOCTYPE svg PUBLIC "-//W3C//DTD SVG 20010904//EN"
 "http://www.w3.org/TR/2001/REC-SVG-20010904/DTD/svg10.dtd">
<svg version="1.0" xmlns="http://www.w3.org/2000/svg"
 width="1080.000000pt" height="1080.000000pt" viewBox="0 0 1080.000000 1080.000000"
 preserveAspectRatio="xMidYMid meet">
<metadata>
Created by potrace 1.14, written by Peter Selinger 2001-2017
</metadata>
<g transform="translate(0.000000,1080.000000) scale(0.100000,-0.100000)"
fill="#000000" stroke="none">
<path d="M434 10783 c2 -10 14 -56 26 -103 11 -47 25 -96 29 -110 5 -14 48
-146 96 -295 48 -148 128 -387 178 -530 49 -143 109 -316 133 -385 23 -69 82
-233 132 -365 49 -132 91 -253 94 -270 3 -16 20 -62 36 -102 17 -40 46 -119
65 -177 l35 -105 -30 -83 c-16 -46 -36 -97 -43 -113 -8 -17 -27 -67 -44 -112
-16 -44 -49 -121 -74 -169 -24 -49 -71 -154 -104 -234 -34 -80 -85 -201 -113
-270 -29 -69 -88 -196 -131 -282 -86 -172 -94 -208 -59 -266 34 -56 109 -68
182 -31 23 12 81 50 129 85 48 35 89 64 92 64 9 0 -3 -202 -15 -247 -8 -31
-27 -59 -73 -105 -35 -35 -111 -121 -169 -193 -90 -110 -118 -153 -181 -280
-135 -273 -197 -582 -180 -905 9 -158 23 -228 87 -417 l51 -151 -50 -89 c-28
-48 -66 -119 -85 -158 -18 -38 -64 -126 -102 -195 -38 -69 -89 -163 -114 -210
-25 -47 -55 -101 -67 -120 -12 -19 -54 -93 -93 -163 l-72 -128 1 -252 0 -252
123 245 c67 135 158 306 201 380 44 74 109 191 146 260 146 276 198 375 240
457 25 48 53 89 66 95 40 19 189 263 344 563 25 50 79 153 120 230 40 77 87
174 105 215 17 41 58 131 90 200 55 118 59 129 59 200 0 41 8 129 17 195 10
66 29 206 44 310 37 278 76 425 176 667 33 80 46 101 74 117 18 11 36 31 39
44 6 23 -9 135 -20 145 -2 2 -25 -1 -50 -7 -25 -6 -51 -9 -57 -5 -15 10 51 42
74 36 10 -2 18 1 18 7 0 6 -3 11 -7 11 -5 0 -9 15 -10 33 -2 43 -68 228 -78
219 -4 -4 -4 4 0 18 11 37 -5 17 -21 -27 l-15 -38 6 40 c4 22 10 44 14 48 10
10 -13 80 -28 85 -6 2 -11 19 -11 38 0 34 -19 50 -21 17 0 -13 -3 -11 -11 7
-10 24 -10 24 -19 5 -8 -17 -9 -16 -4 5 2 14 5 28 5 33 0 15 19 7 23 -10 3
-13 5 -14 6 -3 0 8 -8 44 -19 80 -11 36 -18 50 -15 32 4 -30 3 -32 -11 -17
-11 11 -15 28 -12 56 3 31 0 38 -10 34 -11 -4 -13 2 -7 31 8 46 -13 122 -39
136 -14 8 -16 12 -6 18 7 4 9 13 6 19 -4 6 -12 9 -17 6 -5 -4 -9 10 -9 30 0
19 -4 43 -9 53 -14 27 -85 254 -89 281 -2 14 -7 28 -13 31 -16 11 -61 133 -56
157 2 12 1 20 -4 18 -11 -7 -22 32 -13 46 4 7 3 9 -3 6 -11 -7 -181 435 -197
513 -4 18 -13 44 -32 86 -28 64 -164 459 -263 764 -136 418 -139 428 -147 478
l-7 42 -119 0 c-109 0 -119 -2 -114 -17z m1091 -2551 c-3 -3 -11 0 -18 7 -9
10 -8 11 6 5 10 -3 15 -9 12 -12z m25 -81 c-8 -14 -9 -13 -9 4 1 11 -2 31 -6
45 -6 23 -6 23 9 -4 11 -19 13 -33 6 -45z m-120 -71 c0 -5 -4 -10 -10 -10 -5
0 -10 5 -10 10 0 6 5 10 10 10 6 0 10 -4 10 -10z m7 -42 c-3 -8 -6 -5 -6 6 -1
11 2 17 5 13 3 -3 4 -12 1 -19z m63 -48 c0 -5 -2 -10 -4 -10 -3 0 -8 5 -11 10
-3 6 -1 10 4 10 6 0 11 -4 11 -10z m38 -31 c-1 -17 -10 -35 -19 -40 -16 -8
-16 -7 -1 31 9 22 18 40 20 40 1 0 1 -14 0 -31z m-58 -15 c0 -8 -4 -12 -10 -9
-5 3 -10 10 -10 16 0 5 5 9 10 9 6 0 10 -7 10 -16z m54 -65 c8 7 12 3 14 -15
1 -15 -3 -24 -13 -24 -8 0 -15 4 -15 9 0 5 -2 15 -3 23 -2 7 -2 9 1 5 2 -4 9
-3 16 2z m-24 -31 c0 -7 3 -24 6 -38 6 -24 6 -25 -9 -5 -18 22 -22 55 -7 55 6
0 10 -6 10 -12z m116 -88 c9 0 14 -11 14 -31 0 -17 -4 -28 -10 -24 -5 3 -10
15 -10 25 0 11 -8 24 -18 29 -14 8 -17 18 -14 43 l6 33 9 -37 c5 -22 15 -38
23 -38z m64 -17 c0 -11 -3 -14 -8 -7 -4 6 -14 14 -22 17 -10 4 -8 6 8 6 15 1
22 -5 22 -16z m-90 -13 c0 -5 -2 -10 -4 -10 -3 0 -8 5 -11 10 -3 6 -1 10 4 10
6 0 11 -4 11 -10z m-13 -37 c5 3 9 -12 9 -32 1 -25 -3 -38 -12 -38 -9 0 -11 9
-7 29 5 28 -10 40 -20 16 -3 -7 -6 3 -6 22 0 32 1 33 14 16 7 -10 17 -16 22
-13z m139 -58 c6 -19 9 -35 5 -35 -8 0 -31 50 -31 69 0 21 12 5 26 -34z m-29
-27 c-3 -8 -6 -5 -6 6 -1 11 2 17 5 13 3 -3 4 -12 1 -19z m-17 -23 c0 -13 -4
-14 -20 -5 -11 6 -20 13 -20 15 0 3 9 5 20 5 11 0 20 -7 20 -15z m-83 -42 c-3
-10 -5 -4 -5 12 0 17 2 24 5 18 2 -7 2 -21 0 -30z m135 -68 c2 -27 -1 -44 -7
-42 -13 5 -19 87 -7 87 6 0 12 -20 14 -45z m48 -4 c0 -32 -6 -24 -14 19 -4 25
-3 31 4 20 5 -8 10 -26 10 -39z m-83 -3 c-3 -7 -5 -2 -5 12 0 14 2 19 5 13 2
-7 2 -19 0 -25z m-27 -4 c0 -8 -4 -12 -10 -9 -5 3 -10 10 -10 16 0 5 5 9 10 9
6 0 10 -7 10 -16z m-30 -15 c0 -11 -4 -17 -10 -14 -5 3 -10 13 -10 21 0 8 5
14 10 14 6 0 10 -9 10 -21z m52 -16 c-6 -2 -9 -10 -6 -15 4 -7 2 -8 -5 -4 -13
9 -5 26 12 25 9 0 8 -2 -1 -6z m63 -13 c-3 -5 -16 -10 -28 -9 -20 1 -20 2 3 9
14 4 26 8 28 9 2 1 0 -3 -3 -9z m-100 -20 c3 -5 1 -10 -4 -10 -6 0 -11 5 -11
10 0 6 2 10 4 10 3 0 8 -4 11 -10z m-259 -767 c-28 -118 -52 -348 -62 -578 -5
-108 -9 -138 -29 -180 -13 -27 -31 -68 -41 -90 -9 -22 -42 -92 -74 -156 -31
-63 -60 -127 -63 -141 -4 -15 -46 -100 -94 -190 -47 -89 -108 -203 -134 -253
-91 -173 -130 -245 -134 -245 -2 0 -23 57 -47 128 l-43 127 0 235 c0 240 11
333 60 500 15 55 72 193 95 235 80 142 142 221 299 385 99 102 113 121 127
172 16 55 17 56 63 66 79 17 84 16 77 -15z"/>
<path d="M2150 10778 c1 -13 9 -62 19 -110 21 -103 38 -80 -139 -196 -80 -52
-136 -82 -153 -82 -18 0 -42 -14 -71 -40 l-44 -40 -53 13 c-44 12 -67 12 -124
2 -98 -17 -134 -38 -333 -192 -96 -75 -118 -101 -137 -165 -33 -111 31 -218
131 -218 23 0 25 -3 20 -27 -10 -36 11 -81 45 -98 25 -14 30 -13 56 8 15 13
72 54 126 92 53 38 97 76 97 85 0 8 11 35 25 59 14 23 25 45 25 46 0 5 -28
-10 -140 -77 -112 -66 -129 -72 -164 -58 -38 14 -90 129 -81 176 11 59 88 130
212 196 32 17 76 43 98 59 34 24 50 28 109 28 64 0 70 -3 97 -32 l29 -31 29
28 c39 38 75 33 79 -11 3 -28 -37 -118 -93 -208 -7 -11 -16 -31 -20 -45 -7
-23 -7 -23 9 -7 36 35 106 77 130 77 30 0 56 -24 56 -51 0 -24 -25 -49 -107
-106 -71 -51 -110 -93 -119 -128 -6 -24 -10 -26 -44 -20 -42 7 -71 -5 -195
-87 -127 -83 -165 -95 -185 -59 -11 22 -36 21 -73 -4 -63 -41 -46 -155 50
-342 52 -103 75 -130 124 -150 33 -13 36 -17 35 -52 -1 -49 38 -108 79 -120
46 -12 124 -2 181 23 52 24 104 71 104 93 0 7 4 13 8 13 5 0 18 18 31 40 12
22 27 39 33 37 17 -3 67 74 68 104 0 25 2 26 54 21 30 -2 98 3 152 12 93 15
101 19 136 55 73 76 67 156 -14 205 -24 14 -38 26 -31 26 21 0 53 66 53 109 0
75 -50 121 -134 121 -38 0 -52 -6 -91 -40 -25 -22 -51 -40 -56 -40 -5 0 -2
-11 7 -25 l16 -24 49 27 c45 25 50 26 76 12 15 -9 29 -25 31 -36 4 -27 -36
-74 -82 -99 -21 -11 -36 -27 -36 -37 0 -22 -3 -23 64 8 53 24 58 25 81 10 32
-21 32 -56 1 -85 -27 -25 -171 -91 -202 -91 -11 0 -25 5 -32 12 -15 15 -16 60
-1 75 17 17 1 33 -31 33 -48 0 -59 54 -17 88 10 9 13 21 8 39 -6 23 -12 27
-52 27 -40 1 -44 3 -47 28 -2 20 6 34 35 60 20 18 60 54 88 80 28 26 62 51 75
56 34 13 68 -2 76 -33 8 -33 24 -21 52 39 25 52 18 94 -20 135 -31 33 -83 46
-122 31 -37 -14 -36 -15 -36 31 0 31 -6 47 -29 70 -16 16 -37 29 -45 29 -19 0
-20 17 -2 48 8 15 35 31 77 46 35 13 96 39 135 59 l72 36 7 -82 c18 -221 69
-399 131 -461 34 -33 95 -66 123 -66 42 0 52 -10 45 -47 -11 -58 37 -123 92
-123 14 0 55 14 173 59 30 11 58 18 62 15 5 -3 9 -1 9 4 0 5 53 36 118 68 64
32 119 61 122 65 3 3 34 22 70 41 168 93 302 192 314 233 20 68 -7 124 -70
150 -44 18 -53 28 -34 40 6 3 10 30 10 60 0 47 -4 58 -34 89 -18 20 -41 57
-51 83 -10 27 -28 68 -41 93 l-22 46 29 39 c34 46 52 98 47 140 l-3 30 -122 3
-123 3 -62 -48 c-35 -27 -110 -79 -168 -117 -58 -38 -124 -83 -148 -99 -39
-26 -72 -31 -72 -9 0 4 35 27 78 51 124 69 337 216 318 219 -10 2 -25 -3 -34
-11 -26 -22 -291 -174 -441 -252 -74 -39 -136 -75 -138 -81 -7 -20 42 -79 62
-76 50 9 133 49 254 122 74 44 135 80 138 80 2 0 36 22 76 48 150 101 196 119
225 90 36 -36 -2 -95 -88 -138 -63 -32 -272 -170 -268 -178 2 -4 19 -38 39
-77 20 -38 49 -104 64 -145 15 -41 31 -79 36 -84 11 -12 129 73 211 152 l67
64 -34 61 c-49 90 -70 160 -55 186 17 33 54 26 89 -16 40 -48 131 -227 131
-257 0 -28 -69 -91 -271 -245 -46 -34 -86 -65 -88 -66 -1 -2 3 -13 11 -24 13
-19 16 -18 88 31 136 91 219 138 244 138 44 0 65 -57 34 -96 -4 -6 -52 -38
-106 -69 -53 -32 -174 -109 -267 -170 -190 -124 -251 -153 -284 -136 -29 16
-27 52 5 82 14 13 62 49 107 79 84 57 92 66 79 87 -6 10 -43 -5 -140 -54 -125
-64 -136 -68 -201 -68 -60 0 -73 3 -96 25 -37 35 -60 83 -84 178 -27 105 -28
207 -3 221 24 13 59 4 67 -17 4 -10 17 -62 30 -117 13 -56 30 -118 39 -139
l16 -39 48 6 c43 6 158 57 239 107 l33 20 -26 57 c-15 32 -44 107 -66 168 -22
60 -41 111 -43 113 -1 2 -39 -15 -82 -37 -44 -22 -106 -45 -139 -52 -52 -11
-64 -10 -95 5 -34 16 -99 92 -99 115 0 17 -16 13 -70 -14 -72 -37 -120 -30
-120 16 0 16 71 89 88 89 4 1 18 10 31 20 20 17 22 24 13 48 -24 64 -63 224
-58 237 4 11 -2 15 -24 15 -25 0 -30 -4 -30 -22z m970 -348 c11 -11 20 -28 20
-37 0 -9 9 -27 21 -39 42 -44 -1 -98 -113 -139 -52 -19 -71 -16 -87 13 -7 13
-6 26 4 46 14 26 13 29 -6 45 -30 24 -18 54 34 89 70 48 97 52 127 22z m-396
-251 c8 -12 13 -26 10 -33 -2 -6 6 -16 18 -21 64 -29 44 -84 -51 -132 -70 -37
-92 -40 -115 -17 -22 22 -20 38 10 73 19 23 22 31 11 31 -18 0 -31 32 -23 58
9 25 66 62 98 62 16 0 33 -8 42 -21z m-930 -594 c6 -11 41 -65 79 -120 71
-106 79 -133 48 -162 -10 -10 -21 -30 -25 -46 -4 -16 -44 -65 -97 -117 -76
-76 -95 -90 -123 -90 -67 0 -76 53 -18 113 l37 39 -32 -16 c-75 -38 -140 -2
-186 101 -43 98 -43 116 -5 158 36 40 94 83 178 132 65 39 125 42 144 8z m146
-175 c0 -5 -2 -10 -4 -10 -3 0 -8 5 -11 10 -3 6 -1 10 4 10 6 0 11 -4 11 -10z"/>
<path d="M1600 9430 c-19 -11 -39 -21 -45 -23 -5 -3 -7 -7 -4 -11 4 -4 28 7
55 23 53 34 49 41 -6 11z"/>
<path d="M1638 9313 c-21 -8 -38 -19 -38 -24 0 -5 18 0 40 11 22 11 40 23 40
25 0 6 2 7 -42 -12z"/>
<path d="M2291 10778 c6 -13 13 -25 15 -26 1 -2 20 8 41 22 l38 26 -53 0 c-51
0 -52 -1 -41 -22z"/>
<path d="M2575 10776 c-22 -13 -70 -42 -107 -64 -36 -23 -78 -44 -92 -48 -29
-7 -30 -9 -15 -53 14 -41 31 -40 126 10 70 37 292 166 302 175 2 2 -36 4 -85
4 -75 -1 -95 -5 -129 -24z"/>
<path d="M5235 10768 c4 -18 11 -46 15 -63 5 -16 12 -43 16 -60 4 -16 9 -24
11 -17 12 32 22 5 22 -57 -1 -38 4 -85 10 -103 5 -18 17 -55 26 -83 9 -27 18
-70 21 -95 3 -25 10 -47 14 -50 5 -3 14 -32 19 -65 20 -114 29 -147 40 -158 8
-8 11 -5 11 11 0 19 5 22 40 20 26 -1 40 -6 40 -15 0 -11 -4 -11 -21 -2 -15 8
-24 8 -32 0 -11 -11 -6 -14 45 -25 17 -4 25 -11 22 -19 -6 -16 -56 -16 -62 1
-2 6 -12 12 -23 12 -17 0 -19 -5 -13 -42 3 -24 16 -79 29 -123 13 -44 27 -93
31 -110 l8 -30 7 35 c6 27 7 22 4 -23 -2 -34 0 -55 6 -52 11 7 11 6 14 -71 1
-33 8 -78 15 -99 l13 -39 11 35 c14 41 9 70 -10 62 -10 -4 -14 3 -13 28 1 19
3 26 6 17 2 -10 8 -18 13 -18 5 0 11 8 13 18 3 9 6 -1 7 -23 2 -34 3 -36 9
-15 l7 25 7 -24 c4 -16 1 -28 -8 -35 -7 -6 -19 -31 -25 -54 -9 -36 -8 -53 6
-98 9 -30 21 -54 26 -54 5 0 7 -4 4 -9 -3 -5 1 -14 9 -21 8 -7 15 -19 15 -27
0 -13 -3 -13 -15 -3 -8 7 -13 15 -11 19 2 3 -3 12 -10 19 -13 12 -14 9 -8 -15
4 -15 11 -36 16 -46 5 -9 6 -23 2 -29 -5 -7 -3 -8 6 -3 9 6 10 2 5 -15 -4 -14
-3 -20 3 -16 6 3 8 -11 5 -38 -3 -26 -1 -46 6 -50 6 -4 11 0 11 11 1 28 16 -4
25 -51 6 -36 5 -38 -9 -27 -9 8 -16 10 -16 6 0 -15 32 -151 41 -170 4 -11 10
-38 12 -60 5 -43 9 -59 22 -87 4 -10 5 -24 2 -31 -3 -8 -1 -29 3 -48 l9 -34
-1 40 c0 22 3 54 6 70 5 20 4 25 -2 17 -7 -10 -11 -5 -16 18 -9 49 -6 69 6 40
10 -24 10 -24 18 -5 4 11 5 24 2 29 -3 5 0 6 6 2 15 -9 15 0 0 27 -14 25 -16
50 -6 57 4 3 8 27 9 53 3 60 9 68 33 43 12 -12 14 -17 5 -14 -11 4 -15 -4 -15
-34 -1 -22 -6 -43 -11 -47 -17 -11 -23 -42 -10 -47 16 -6 20 -44 6 -60 -11
-13 -17 -71 -21 -181 -1 -44 3 -68 14 -80 20 -23 30 -53 18 -53 -17 0 -1 -122
17 -137 10 -8 12 -12 6 -8 -10 5 -11 -6 -6 -42 3 -26 9 -50 13 -53 5 -3 8 -31
9 -64 0 -64 10 -91 12 -35 l2 34 6 -35 c4 -19 3 -37 0 -40 -12 -9 -4 -71 10
-80 10 -6 12 -21 7 -56 -4 -32 -3 -44 3 -35 5 9 8 -61 6 -188 -2 -113 1 -201
6 -201 5 0 9 17 9 37 0 20 3 34 6 30 3 -3 3 -34 -2 -69 -5 -47 -9 -57 -14 -38
-5 18 -9 6 -16 -48 -10 -74 -4 -84 15 -22 l11 35 -6 -40 c-6 -35 -8 -59 -13
-114 -1 -8 -8 -11 -22 -8 -16 4 -19 2 -13 -11 4 -9 9 -29 12 -44 3 -19 10 -28
23 -28 15 0 19 -7 19 -40 0 -22 -3 -40 -7 -40 -5 0 -9 -18 -10 -40 -2 -34 0
-40 17 -40 11 0 20 -4 20 -10 0 -5 -7 -10 -15 -10 -19 0 -19 -9 1 -31 15 -17
15 -20 0 -44 -9 -14 -21 -23 -26 -20 -4 3 -16 2 -25 -1 -13 -6 -14 -9 -3 -16
10 -8 10 -9 -2 -5 -8 2 -14 10 -12 17 1 7 -2 18 -8 25 -9 11 -5 13 19 10 29
-4 50 9 36 23 -3 3 -10 0 -15 -8 -6 -10 -9 -1 -8 27 0 45 -8 67 -23 58 -5 -4
-9 3 -9 15 0 11 7 23 15 26 16 7 21 24 6 24 -17 0 -63 -51 -58 -65 3 -7 0 -16
-8 -19 -10 -3 -12 0 -9 12 5 16 5 16 -5 0 -8 -11 -8 -30 -2 -57 5 -24 5 -39 0
-35 -5 3 -9 15 -9 26 0 25 -13 16 -15 -10 -1 -9 -6 -27 -13 -38 -6 -12 -13
-47 -14 -78 -2 -37 -7 -55 -15 -52 -6 3 -14 -7 -18 -22 -6 -24 -36 -73 -61
-99 -6 -6 -9 -24 -7 -40 4 -23 2 -25 -7 -13 -10 13 -11 13 -7 -2 3 -9 8 -34
11 -55 3 -21 3 -29 0 -19 -4 11 -12 25 -19 33 -11 10 -15 7 -24 -19 -6 -17
-11 -38 -10 -47 0 -15 1 -15 11 0 10 14 13 14 30 -3 22 -22 23 -34 4 -41 -10
-4 -13 -1 -9 9 4 10 -3 14 -26 14 -26 0 -33 -6 -47 -37 -9 -21 -17 -60 -17
-88 0 -27 -2 -42 -4 -32 -10 43 -33 2 -33 -60 0 -17 -5 -35 -10 -38 -7 -4 -9
3 -5 22 6 26 5 25 -10 -6 -17 -38 -22 -77 -6 -52 8 12 11 9 16 -12 5 -17 2
-33 -5 -42 -11 -13 -14 -13 -25 2 -11 14 -13 11 -19 -22 -4 -22 -14 -48 -22
-59 -19 -27 -18 -37 4 -29 9 3 14 3 10 -2 -4 -4 -3 -16 3 -26 7 -15 6 -19 -6
-19 -8 0 -15 -6 -16 -12 0 -7 -4 -4 -9 7 -8 18 -9 17 -9 -7 -1 -15 -6 -39 -12
-54 -10 -27 -9 -27 8 -12 18 16 19 14 19 -43 0 -32 -3 -54 -7 -48 -4 8 -8 7
-12 -2 -3 -8 -4 2 -2 21 1 19 0 25 -2 13 -2 -13 -8 -23 -13 -23 -4 0 -7 -22
-7 -50 1 -27 5 -50 10 -50 4 0 8 -15 9 -32 1 -28 2 -27 8 12 l7 45 1 -40 c1
-40 -16 -100 -17 -62 -1 9 -5 17 -10 17 -4 0 -6 12 -4 28 3 22 2 24 -6 10 -13
-19 4 -118 20 -118 5 0 9 -12 9 -26 0 -15 4 -23 10 -19 6 4 8 23 6 43 -3 20
-3 29 0 20 9 -29 21 -21 33 20 l11 37 -5 -37 c-3 -28 0 -38 11 -38 10 0 14 12
14 40 0 38 -2 40 -30 40 -28 0 -30 2 -30 40 0 22 4 40 8 40 5 0 13 17 19 38
l11 37 -5 -37 c-5 -36 -4 -38 21 -38 21 0 26 5 27 28 2 48 22 101 42 114 9 6
8 10 -3 17 -8 6 -11 13 -7 18 5 4 12 1 17 -7 10 -16 3 -51 -12 -61 -8 -5 -19
-51 -22 -96 0 -11 -4 -19 -9 -16 -11 7 -5 -100 7 -115 7 -10 6 -16 -3 -22 -9
-5 -12 -24 -10 -56 l4 -49 -40 4 c-22 2 -46 8 -52 13 -9 7 -13 7 -13 -1 0 -6
5 -11 10 -11 6 0 10 -8 10 -17 -1 -35 -30 19 -31 56 l-1 36 -14 -44 c-17 -55
-28 -321 -12 -321 6 0 8 11 6 25 -3 14 -2 25 2 25 11 0 23 -157 18 -235 -2
-36 -1 -65 2 -65 3 0 5 -18 5 -39 0 -94 98 -123 140 -41 18 36 19 51 1 27 -13
-16 -14 -16 -19 4 -3 11 -10 18 -16 15 -7 -4 -9 11 -8 44 2 58 17 69 17 13 0
-47 13 -72 26 -52 10 17 6 70 -7 84 -5 5 -9 18 -8 30 1 17 2 16 9 -5 5 -17 8
6 9 68 1 50 -2 92 -6 92 -11 0 -6 387 5 473 4 37 5 67 0 67 -4 0 -8 5 -8 11 0
5 4 8 9 5 5 -3 12 22 17 57 4 34 10 73 12 87 2 14 4 37 4 52 1 15 5 25 10 22
5 -3 8 -2 6 3 -1 4 3 25 9 45 6 21 9 48 6 60 -4 18 -3 20 6 8 6 -9 11 -10 11
-3 0 6 3 20 6 30 5 15 4 15 -5 3 -6 -8 -11 -11 -11 -7 0 5 9 20 20 34 15 19
17 29 9 39 -11 14 -5 34 11 34 5 0 7 -8 5 -17 -3 -10 1 -6 8 10 l13 27 43 -61
c23 -33 48 -58 54 -56 8 2 14 43 18 113 6 101 23 211 34 222 2 3 9 -8 15 -24
44 -119 57 -147 71 -154 34 -19 26 -39 232 565 30 88 77 228 103 310 48 148
49 149 52 100 2 -27 -2 -125 -8 -217 -7 -91 -9 -171 -5 -177 16 -27 55 -10
111 49 60 63 163 196 186 240 7 14 27 45 44 70 41 59 184 321 184 338 0 7 11
35 25 62 44 88 175 473 195 575 5 28 14 66 20 85 20 66 63 225 95 355 33 133
37 137 50 40 7 -55 75 -404 98 -500 36 -151 132 -499 143 -516 3 -5 14 -9 24
-9 23 0 20 -15 55 245 32 233 71 475 79 483 3 3 7 3 9 1 35 -49 121 -188 142
-229 15 -30 33 -62 40 -70 16 -19 121 -195 160 -269 17 -31 45 -81 62 -111 17
-30 53 -96 80 -145 27 -50 55 -99 61 -110 36 -64 144 -248 174 -295 19 -30 50
-84 67 -120 18 -36 38 -72 45 -80 7 -8 31 -49 52 -90 21 -41 54 -102 74 -135
20 -33 51 -89 69 -125 19 -36 58 -107 88 -157 44 -77 58 -93 78 -93 31 0 38
14 78 161 19 68 38 124 44 126 18 6 106 -192 156 -352 27 -86 86 -307 102
-385 38 -178 101 -534 110 -615 3 -33 10 -87 15 -120 16 -100 58 -414 70 -515
13 -109 25 -140 54 -140 39 0 62 47 122 257 21 73 40 130 44 127 3 -3 10 -29
15 -57 14 -75 35 -74 84 5 71 112 161 236 220 303 9 11 39 49 65 83 47 61 223
252 296 319 l35 33 -27 23 c-36 30 -43 59 -23 101 21 43 53 55 165 63 127 8
263 -22 428 -94 9 -4 12 370 12 1850 l0 1855 -118 111 c-139 130 -298 256
-435 342 l-97 62 49 27 c190 104 268 220 216 320 -37 71 -80 74 -460 25 -27
-4 -164 -9 -304 -12 -282 -6 -423 4 -654 43 -82 14 -150 24 -151 22 -2 -1 -17
-44 -35 -95 -32 -89 -33 -113 -7 -113 16 0 136 -88 189 -139 66 -63 85 -134
51 -187 -50 -76 -137 -67 -305 33 -33 20 -61 34 -64 32 -4 -5 -113 -260 -135
-319 -22 -59 -81 -173 -112 -217 -73 -107 -197 -94 -222 22 -4 22 8 69 45 175
28 80 57 165 64 190 7 25 33 100 59 168 25 68 46 125 46 127 0 2 -42 20 -93
40 -106 41 -163 87 -173 141 -8 46 1 78 34 115 49 55 147 58 270 10 29 -12 56
-21 61 -21 5 0 16 25 26 56 10 32 40 114 66 183 27 69 49 131 49 137 0 12 -16
18 -228 79 l-153 45 -1439 0 c-1141 0 -1439 -3 -1443 -12 -4 -10 -6 -10 -6 0
-1 6 -5 12 -11 12 -5 0 -7 -15 -5 -32 l5 -33 -10 33 c-11 32 -11 32 -76 32
l-66 0 7 -32z m45 -8 c6 10 15 6 34 -14 15 -14 33 -26 40 -26 20 0 27 -12 14
-27 -10 -12 -15 -11 -30 9 l-18 23 -20 -25 -20 -25 0 23 c0 12 -4 22 -10 22
-5 0 -10 12 -9 28 0 15 3 21 6 13 4 -10 7 -11 13 -1z m179 -190 c0 -10 -3 -8
-9 5 -12 27 -12 43 0 25 5 -8 9 -22 9 -30z m-132 -62 c-3 -7 -5 -2 -5 12 0 14
2 19 5 13 2 -7 2 -19 0 -25z m125 -55 c-4 -55 -12 -54 -12 2 0 27 3 45 7 41 4
-4 6 -23 5 -43z m38 -13 c0 -11 -2 -20 -4 -20 -2 0 -6 9 -9 20 -3 11 -1 20 4
20 5 0 9 -9 9 -20z m-135 -30 c3 -5 1 -10 -4 -10 -6 0 -11 5 -11 10 0 6 2 10
4 10 3 0 8 -4 11 -10z m193 -185 c-3 -3 -9 2 -12 12 -6 14 -5 15 5 6 7 -7 10
-15 7 -18z m-11 -52 c-3 -15 0 -35 6 -44 11 -18 3 -39 -10 -26 -7 8 -12 78 -6
90 9 16 15 5 10 -20z m10 -112 c0 -11 -5 -17 -9 -15 -11 7 -10 34 1 34 6 0 9
-9 8 -19z m53 -126 c0 -8 -4 -15 -10 -15 -5 0 -7 7 -4 15 4 8 8 15 10 15 2 0
4 -7 4 -15z m-130 -25 c0 -5 -4 -10 -10 -10 -5 0 -10 5 -10 10 0 6 5 10 10 10
6 0 10 -4 10 -10z m153 -27 c-7 -3 -13 -12 -13 -20 0 -9 -2 -14 -5 -11 -4 3
-3 18 1 33 5 20 9 24 18 14 8 -8 8 -13 -1 -16z m-137 -40 c-11 -11 -19 6 -11
24 8 17 8 17 12 0 3 -10 2 -21 -1 -24z m31 5 c-3 -7 -5 -2 -5 12 0 14 2 19 5
13 2 -7 2 -19 0 -25z m133 -23 c0 -5 -5 -3 -10 5 -5 8 -10 20 -10 25 0 6 5 3
10 -5 5 -8 10 -19 10 -25z m-33 -17 c-3 -7 -5 -2 -5 12 0 14 2 19 5 13 2 -7 2
-19 0 -25z m34 -37 c7 12 9 11 9 -1 0 -8 -5 -22 -10 -30 -6 -9 -10 -11 -10 -3
0 7 -7 10 -17 6 -13 -5 -15 -2 -10 11 4 10 7 23 7 29 0 7 5 4 11 -7 9 -15 13
-16 20 -5z m-47 -98 c-6 -26 -28 -61 -24 -38 5 23 -1 36 -12 29 -7 -4 -8 -3
-4 4 4 7 14 12 22 12 8 0 14 5 14 10 0 6 2 10 5 10 3 0 2 -12 -1 -27z m41 17
c3 -5 1 -10 -4 -10 -6 0 -11 5 -11 10 0 6 2 10 4 10 3 0 8 -4 11 -10z m15 -35
c0 -8 -4 -15 -10 -15 -5 0 -10 7 -10 15 0 8 5 15 10 15 6 0 10 -7 10 -15z
m4285 -45 c31 -30 48 -81 40 -123 -14 -69 -157 -274 -458 -657 -265 -339 -312
-389 -375 -397 -104 -14 -154 85 -97 191 30 57 226 352 325 489 38 54 70 101
70 104 0 3 14 23 32 45 17 22 42 56 56 76 45 67 157 205 192 239 52 49 88 64
143 60 32 -3 56 -12 72 -27z m-4289 -45 c-3 -8 -1 -15 4 -15 6 0 10 -7 10 -15
0 -8 -7 -15 -15 -15 -8 0 -15 6 -15 14 0 18 10 46 17 46 3 0 3 -7 -1 -15z m31
-67 c-3 -7 -5 -2 -5 12 0 14 2 19 5 13 2 -7 2 -19 0 -25z m33 -15 c0 -43 -5
-41 -13 5 -4 18 -2 32 3 32 6 0 10 -16 10 -37z m-126 -47 c-3 -15 -8 -25 -11
-23 -2 3 -1 17 3 31 3 15 8 25 11 23 2 -3 1 -17 -3 -31z m110 -36 c-3 -2 -9 2
-14 10 -7 11 -10 6 -10 -17 0 -18 -4 -33 -10 -33 -14 0 -12 74 3 89 10 10 14
7 24 -16 6 -15 9 -30 7 -33z m27 -3 c-13 -13 -15 1 -4 30 7 17 8 17 11 -1 2
-10 -1 -23 -7 -29z m29 -128 c0 8 2 12 5 9 3 -3 -1 -20 -9 -39 -13 -32 -17
-34 -65 -35 -28 -1 -51 2 -51 7 0 5 7 9 15 9 8 0 15 6 15 13 0 8 3 7 10 -3 8
-13 11 -12 24 5 9 11 16 15 16 8 0 -7 7 -10 15 -7 10 4 14 14 10 28 -5 17 -4
18 4 6 9 -12 11 -13 11 -1z m5 -110 c2 -25 0 -37 -4 -30 -7 11 -10 11 -14 0
-3 -8 -6 4 -6 27 -1 38 7 60 17 50 2 -3 6 -24 7 -47z m-45 32 c0 -5 3 -23 6
-40 5 -24 3 -31 -10 -31 -12 0 -16 10 -16 40 0 22 5 40 10 40 6 0 10 -4 10 -9z
m-63 -33 c-3 -8 -6 -5 -6 6 -1 11 2 17 5 13 3 -3 4 -12 1 -19z m22 -58 c0 -10
-3 -8 -9 5 -12 27 -12 43 0 25 5 -8 9 -22 9 -30z m95 -14 c-8 -34 4 -52 20
-30 17 23 31 1 16 -25 -11 -22 -54 -25 -46 -4 4 9 -7 13 -39 13 -25 0 -45 5
-45 10 0 6 18 10 40 10 36 0 40 3 40 25 0 14 5 25 10 25 6 0 8 -10 4 -24z
m-54 4 c0 -5 -4 -10 -10 -10 -5 0 -10 5 -10 10 0 6 5 10 10 10 6 0 10 -4 10
-10z m150 -435 c-10 -12 -9 -15 4 -15 9 0 16 -7 16 -15 0 -8 -4 -15 -10 -15
-5 0 -10 -11 -10 -25 0 -14 -4 -25 -10 -25 -9 0 -12 14 -9 36 0 4 -5 11 -13
15 -10 7 -10 9 0 9 6 0 12 7 12 15 0 8 -4 15 -10 15 -19 0 -10 21 13 29 26 10
35 -3 17 -24z m-84 -108 c8 3 14 -1 14 -11 0 -26 -36 -20 -37 7 0 12 1 17 4
10 2 -7 11 -9 19 -6z m153 -137 c0 -9 -4 -8 -9 5 -7 17 -9 17 -9 3 -1 -10 -8
-18 -16 -18 -11 0 -15 -11 -15 -40 0 -22 -4 -40 -10 -40 -5 0 -10 18 -10 40 0
22 5 40 10 40 6 0 10 10 11 23 0 20 1 21 8 2 7 -17 9 -16 16 10 7 27 8 28 15
10 5 -11 9 -27 9 -35z m-109 -31 c0 -12 -6 -16 -20 -12 -11 3 -20 11 -20 19 0
7 9 12 20 11 12 -1 20 -8 20 -18z m-3 -81 c-3 -8 -6 -5 -6 6 -1 11 2 17 5 13
3 -3 4 -12 1 -19z m114 5 c2 -34 -3 -58 -14 -68 -7 -6 -9 -6 -4 -1 15 20 8 74
-10 79 -14 4 -12 5 5 6 14 1 22 -5 23 -16z m-124 -55 c-3 -7 -5 -2 -5 12 0 14
2 19 5 13 2 -7 2 -19 0 -25z m150 10 c-3 -8 -6 -5 -6 6 -1 11 2 17 5 13 3 -3
4 -12 1 -19z m-7 -84 c0 -8 -4 -14 -10 -14 -5 0 -10 9 -10 21 0 11 5 17 10 14
6 -3 10 -13 10 -21z m-20 -124 c0 -27 5 -43 15 -46 8 -4 15 -15 15 -26 0 -10
-4 -16 -10 -13 -5 3 -10 2 -10 -2 0 -5 -7 -18 -15 -29 -13 -16 -14 -16 -9 -1
5 15 -5 22 -22 15 -20 -9 -44 114 -25 126 5 3 9 0 8 -7 -1 -45 5 -67 18 -67
11 0 15 12 15 45 0 25 5 45 10 45 6 0 10 -18 10 -40z m-43 -167 c-3 -10 -5 -2
-5 17 0 19 2 27 5 18 2 -10 2 -26 0 -35z m127 -120 c9 4 9 -9 2 -54 -7 -42 -6
-76 2 -117 7 -32 11 -74 11 -93 l-2 -34 -8 35 c-7 31 -7 30 -6 -17 1 -28 -1
-49 -5 -46 -5 2 -8 15 -8 29 0 22 -3 24 -22 18 -31 -9 -53 -44 -28 -44 6 0 10
-18 10 -40 0 -38 -2 -40 -31 -40 -29 0 -30 2 -24 29 3 17 2 32 -4 36 -6 3 -10
23 -10 43 l2 37 8 -35 c6 -27 7 -21 5 30 -2 36 -1 55 1 43 3 -16 11 -23 29
-23 23 0 24 2 24 80 l0 80 -30 0 c-28 0 -30 2 -30 40 l0 40 45 0 c36 0 45 4
46 18 1 15 2 15 6 -1 3 -10 10 -16 17 -14z m-129 -15 c7 -24 10 -167 3 -155
-4 7 -8 37 -8 67 0 39 -3 51 -10 40 -7 -11 -10 -5 -10 23 0 35 16 51 25 25z
m4465 -11 c57 -38 74 -79 78 -190 l4 -98 40 -16 c45 -18 68 -55 68 -110 0 -61
-36 -106 -100 -126 -12 -4 -19 -32 -28 -112 -12 -108 -22 -136 -64 -175 -30
-27 -96 -27 -132 1 -38 30 -54 67 -62 142 l-7 65 -72 -5 c-61 -5 -80 -2 -117
15 -53 26 -78 66 -78 124 0 86 55 134 181 158 l66 12 7 86 c4 48 11 104 17
124 17 67 85 126 145 128 12 0 36 -10 54 -23z m-4463 -364 c-3 -10 -5 -4 -5
12 0 17 2 24 5 18 2 -7 2 -21 0 -30z m51 -107 c-20 -14 -14 -26 13 -26 12 0
16 -7 15 -25 0 -15 -6 -23 -13 -21 -9 4 -11 -5 -8 -27 4 -28 4 -29 -4 -7 -8
25 -11 22 -24 -20 -2 -8 -5 16 -5 55 -1 66 7 85 33 85 6 -1 2 -7 -7 -14z m-8
-150 c0 -3 -4 -8 -10 -11 -5 -3 -10 -1 -10 4 0 6 5 11 10 11 6 0 10 -2 10 -4z
m-169 -236 c10 0 13 -73 3 -83 -8 -8 -34 3 -34 15 0 6 8 17 18 25 9 8 13 12 7
10 -6 -3 -10 11 -11 32 -1 20 1 28 3 19 3 -10 9 -18 14 -18z m90 -14 c-5 -6
-11 -20 -14 -31 -3 -11 -4 -4 -3 16 1 25 5 35 14 32 8 -4 9 -9 3 -17z m-21
-75 c0 -5 -7 -11 -15 -15 -15 -5 -20 5 -8 17 9 10 23 9 23 -2z m-142 -53 c-2
-13 2 -22 8 -21 7 1 14 -14 16 -37 2 -21 2 -37 -1 -35 -2 2 -12 0 -21 -5 -13
-7 -21 -5 -30 5 -9 11 -17 12 -30 5 -27 -14 -32 -12 -21 7 5 10 20 18 33 18
18 0 24 6 26 30 2 17 5 36 7 43 7 20 16 13 13 -10z m84 -20 c-9 -9 -12 -7 -12
12 0 19 3 21 12 12 9 -9 9 -15 0 -24z m-63 -179 c-4 -9 -16 -22 -26 -30 -16
-13 -16 -11 1 15 13 20 15 31 8 34 -7 2 -12 11 -12 20 0 13 3 12 19 -4 12 -13
16 -24 10 -35z m-100 -128 c8 -13 7 -22 -2 -29 -9 -8 -13 -3 -14 19 -3 34 2
37 16 10z m-105 -16 c-4 -8 -11 -12 -16 -9 -6 4 -5 10 3 15 19 12 19 11 13 -6z
m66 -25 c0 -5 -4 -10 -10 -10 -5 0 -10 5 -10 10 0 6 5 10 10 10 6 0 10 -4 10
-10z m-63 -22 c-3 -8 -6 -5 -6 6 -1 11 2 17 5 13 3 -3 4 -12 1 -19z m98 -8 c3
-5 1 -10 -4 -10 -6 0 -11 5 -11 10 0 6 2 10 4 10 3 0 8 -4 11 -10z m-69 -103
c14 5 15 3 5 -15 -17 -33 -31 -36 -31 -8 0 30 -15 35 -24 9 -6 -14 -9 -15 -16
-3 -6 10 -11 5 -18 -21 -6 -19 -10 -25 -11 -14 0 11 6 31 14 45 8 14 14 19 15
10 0 -12 3 -11 17 3 15 14 18 15 25 2 5 -8 15 -12 24 -8z m24 -53 c0 -8 -4
-12 -10 -9 -5 3 -10 10 -10 16 0 5 5 9 10 9 6 0 10 -7 10 -16z m-32 -29 c0
-14 -4 -25 -9 -25 -10 0 -11 12 -3 34 9 22 12 20 12 -9z m-81 -49 c-4 -9 -12
-16 -19 -16 -11 0 -11 2 0 8 7 5 10 16 6 28 -6 15 -4 17 6 7 7 -6 10 -19 7
-27z m33 -110 c0 -2 3 -13 6 -23 5 -16 4 -16 -10 1 -9 11 -16 14 -16 8 0 -20
-2 -26 -11 -44 -6 -11 -5 -18 4 -21 9 -4 9 -8 1 -14 -7 -4 -14 -17 -16 -28 -3
-11 -4 13 -4 52 1 69 2 73 24 73 12 0 22 -2 22 -4z m-134 -223 c-10 -10 -19 5
-10 18 6 11 8 11 12 0 2 -7 1 -15 -2 -18z m-16 -323 c0 -5 -8 -10 -17 -10 -15
0 -16 2 -3 10 19 12 20 12 20 0z m0 -177 c-11 -17 -11 -17 -6 0 3 10 7 26 7
35 1 15 2 15 6 0 2 -10 -1 -25 -7 -35z m107 -15 c-3 -8 -6 -5 -6 6 -1 11 2 17
5 13 3 -3 4 -12 1 -19z m-90 -80 c-3 -8 -6 -5 -6 6 -1 11 2 17 5 13 3 -3 4
-12 1 -19z m94 -74 c-5 -16 -10 -21 -10 -12 -1 18 10 51 15 45 2 -1 -1 -16 -5
-33z m-104 -21 c-3 -10 -5 -4 -5 12 0 17 2 24 5 18 2 -7 2 -21 0 -30z m53 -53
c0 -5 7 -10 15 -10 8 0 15 -5 15 -11 0 -18 -45 -5 -48 14 -2 9 1 17 7 17 6 0
11 -4 11 -10z m-40 -74 c0 -3 -4 -8 -10 -11 -5 -3 -10 -1 -10 4 0 6 5 11 10
11 6 0 10 -2 10 -4z m60 -26 c0 -5 6 -10 14 -10 22 0 27 -39 6 -50 -29 -15
-44 -12 -26 5 17 17 11 45 -9 45 -8 0 -17 5 -20 10 -3 6 3 10 14 10 12 0 21
-4 21 -10z m-25 -30 c18 -20 17 -20 -11 -20 -22 0 -26 3 -14 10 13 8 12 10 -2
10 -10 0 -18 5 -18 10 0 17 26 11 45 -10z"/>
<path d="M6003 7725 c0 -22 2 -30 4 -17 2 12 2 30 0 40 -3 9 -5 -1 -4 -23z"/>
<path d="M6002 7625 c0 -16 2 -22 5 -12 2 9 2 23 0 30 -3 6 -5 -1 -5 -18z"/>
<path d="M1630 10119 c-25 -16 -98 -61 -162 -100 -65 -38 -118 -72 -118 -75 0
-11 21 -44 28 -44 17 0 275 161 331 207 3 2 -4 12 -15 22 -19 19 -20 18 -64
-10z"/>
<path d="M8075 7300 c-11 -4 -56 -23 -100 -41 -44 -18 -89 -39 -100 -46 -11
-7 -26 -13 -33 -13 -8 0 -28 -6 -45 -14 -18 -8 -78 -35 -134 -60 -56 -25 -108
-46 -116 -46 -7 0 -17 -4 -23 -8 -14 -13 -208 -93 -379 -157 -82 -31 -166 -63
-185 -70 -147 -58 -440 -133 -532 -136 -54 -2 -126 10 -134 22 -10 16 -24 9
-24 -12 0 -31 54 -94 125 -144 123 -88 253 -94 420 -20 17 7 41 16 55 20 14 4
79 33 145 65 66 31 135 63 153 71 17 7 32 17 32 21 0 5 6 8 13 8 25 0 496 257
632 345 111 72 167 106 214 130 50 25 71 49 71 79 0 17 -23 20 -55 6z"/>
<path d="M5803 7223 c-7 -25 -8 -45 -1 -65 14 -38 20 -30 9 10 -6 18 -6 34 -1
37 5 3 13 -14 19 -37 l10 -43 -5 49 c-9 79 -17 92 -31 49z"/>
<path d="M5630 6761 c0 -5 -3 -18 -6 -28 -6 -16 -5 -16 9 2 19 23 21 35 7 35
-5 0 -10 -4 -10 -9z"/>
<path d="M7509 6602 c-5 -13 -9 -73 -9 -133 l0 -109 156 0 c150 0 159 -1 231
-30 41 -16 81 -30 90 -30 20 0 163 -76 248 -132 155 -103 271 -242 304 -366 7
-23 16 -42 21 -42 11 0 49 71 60 109 l6 24 22 -23 c19 -21 22 -21 28 -6 8 21
-4 169 -15 176 -4 3 -10 15 -13 27 -6 22 -5 22 23 8 15 -8 30 -15 34 -15 39 0
-109 174 -235 275 -181 146 -304 215 -425 239 -103 21 -243 37 -389 44 -128 7
-128 7 -137 -16z"/>
<path d="M7115 6589 c-259 -44 -319 -59 -440 -112 -103 -45 -124 -56 -176 -96
-24 -18 -73 -51 -109 -74 -42 -27 -72 -56 -87 -82 -32 -57 -30 -65 19 -65 41
0 42 0 20 -16 -34 -24 -17 -35 30 -18 51 18 51 18 38 -5 -5 -11 -10 -22 -10
-25 0 -18 55 1 173 58 203 99 294 132 407 151 19 3 58 10 85 15 57 12 103 17
228 26 48 4 87 7 87 8 0 1 9 33 20 71 12 39 25 90 30 115 5 25 12 53 16 63 6
17 0 18 -82 16 -49 -2 -161 -15 -249 -30z"/>
<path d="M2825 6593 c-11 -2 -50 -13 -87 -24 -63 -18 -72 -18 -154 -4 -48 8
-115 15 -149 15 -70 0 -198 -30 -263 -61 -84 -41 -95 -133 -20 -174 l36 -19
54 22 c133 54 179 58 355 31 74 -12 89 -11 175 9 52 12 119 24 149 28 106 12
224 -31 217 -79 -6 -39 -101 -93 -251 -143 -155 -51 -162 -55 -290 -173 -95
-87 -242 -171 -299 -171 -45 0 -94 -27 -111 -63 -9 -18 -51 -147 -93 -287 -42
-140 -109 -358 -149 -485 -84 -263 -132 -421 -168 -550 -13 -49 -63 -223 -109
-385 -232 -807 -292 -1023 -318 -1150 -11 -52 -31 -142 -45 -200 -31 -127 -44
-323 -26 -397 14 -58 65 -194 93 -247 18 -34 20 -50 15 -140 -8 -132 -40 -290
-78 -381 -54 -132 -180 -347 -286 -491 -228 -310 -394 -489 -647 -693 -92 -75
-180 -145 -195 -156 -15 -11 -62 -49 -104 -84 -72 -59 -77 -66 -77 -102 l0
-39 78 0 c77 0 79 0 129 43 27 23 121 98 207 166 191 151 323 270 423 382 103
115 258 309 319 399 28 41 73 109 102 150 71 104 184 327 220 435 52 153 76
306 75 491 -1 89 -4 177 -8 195 l-7 33 23 -17 c40 -28 86 -46 248 -93 354
-103 708 -226 951 -329 69 -29 161 -65 205 -80 105 -36 145 -56 145 -75 0 -8
-7 -53 -15 -100 -58 -339 -86 -695 -92 -1182 l-5 -418 81 0 81 0 0 333 c0 335
7 485 35 767 31 307 56 477 86 595 45 170 44 188 -3 230 -41 38 -78 44 -136
24 -26 -9 -37 -6 -84 19 -158 89 -822 329 -1208 437 -52 15 -132 45 -177 67
-74 36 -88 39 -150 37 l-68 -2 3 39 c4 48 34 180 67 299 14 50 32 128 41 175
14 74 102 394 179 650 14 47 34 117 45 155 10 39 30 111 45 160 15 50 37 128
50 175 13 47 47 164 76 260 28 96 54 186 56 200 3 14 39 131 80 260 84 263
120 380 190 620 l48 164 41 12 c115 33 304 154 356 229 22 31 45 50 81 64 27
12 55 21 61 21 6 0 24 7 39 15 16 8 50 21 75 30 148 46 211 82 272 151 71 81
87 173 45 255 -31 60 -119 121 -207 145 -49 13 -226 18 -273 7z"/>
<path d="M7116 6269 c-246 -28 -499 -135 -633 -268 -148 -147 -156 -321 -23
-496 l49 -63 -58 5 c-65 6 -97 -12 -41 -24 18 -3 34 -11 36 -18 3 -7 40 -18
82 -25 42 -6 140 -23 217 -35 77 -13 183 -29 235 -36 52 -7 126 -17 164 -24
l69 -12 -7 90 c-7 93 -31 170 -82 260 -36 65 -139 164 -203 196 -55 28 -220
73 -313 86 -49 7 -83 31 -57 39 8 3 100 7 204 9 174 4 197 7 270 32 95 32 134
54 198 114 45 42 117 146 117 170 0 13 -115 13 -224 0z"/>
<path d="M7520 6241 c0 -6 11 -40 25 -77 73 -193 251 -354 451 -407 108 -29
121 -47 32 -47 -172 -1 -319 -49 -386 -128 -88 -105 -214 -329 -190 -337 21
-7 454 -45 589 -51 96 -5 128 -4 134 6 4 7 2 16 -5 20 -9 6 -8 10 5 18 30 16
6 32 -48 32 -29 0 -76 3 -104 6 l-53 7 61 59 c111 109 150 266 103 413 -42
134 -141 266 -264 351 -114 80 -350 171 -350 135z"/>
<path d="M5416 6175 c-3 -8 -1 -15 4 -15 6 0 10 7 10 15 0 8 -2 15 -4 15 -2 0
-6 -7 -10 -15z"/>
<path d="M2905 5966 c-11 -8 -24 -12 -30 -9 -7 2 -25 -2 -41 -8 -16 -7 -33
-11 -38 -10 -4 1 -6 -13 -4 -30 4 -28 3 -30 -8 -15 -8 12 -14 14 -19 6 -12
-19 27 -41 61 -35 22 4 33 1 37 -9 4 -10 0 -12 -16 -8 -12 3 7 -17 42 -44 35
-27 74 -57 87 -67 26 -20 55 -13 47 11 -4 15 -3 15 6 2 8 -11 7 -18 -5 -26
-13 -10 -11 -15 12 -33 36 -28 49 -22 49 22 1 20 4 39 8 43 4 4 7 -11 7 -32 0
-22 -5 -45 -10 -50 -7 -7 9 -26 47 -59 58 -49 146 -133 290 -273 41 -40 79
-69 85 -66 7 5 8 2 3 -5 -4 -8 7 -27 31 -52 41 -42 54 -48 54 -23 0 8 -3 13
-7 11 -5 -3 -16 6 -26 19 -21 28 -12 32 15 7 15 -13 18 -14 18 -1 0 8 -11 24
-24 35 -20 18 -25 19 -30 7 -4 -12 -13 -8 -37 17 -30 31 -33 53 -3 28 13 -11
15 -11 14 2 -4 28 0 49 11 49 5 0 8 -4 5 -9 -4 -5 -1 -11 4 -13 6 -2 12 -13
13 -26 0 -12 7 -22 13 -22 7 0 15 -7 18 -16 5 -13 9 -14 21 -4 19 16 73 4 78
-18 3 -12 5 -10 6 6 0 12 6 22 12 22 7 0 9 -10 7 -25 -4 -19 -1 -25 13 -25 25
0 24 21 -2 51 -14 15 -23 20 -26 12 -3 -9 -12 -9 -30 -2 -14 5 -34 7 -44 4
-13 -4 -19 -1 -19 9 0 9 4 16 10 16 18 0 -3 65 -30 90 -15 14 -29 32 -33 40
-4 12 -7 13 -15 2 -5 -8 -12 -13 -16 -13 -8 1 -9 -6 -3 -22 4 -9 6 -9 6 1 1 7
6 10 11 7 17 -10 11 -25 -9 -25 -29 0 -52 -11 -45 -22 4 -5 -3 -8 -16 -6 -17
2 -24 11 -26 33 -2 16 0 25 4 19 4 -6 18 -14 32 -18 14 -4 21 -4 15 1 -20 16
-15 34 12 45 16 7 29 13 31 14 1 1 -27 30 -64 65 -36 35 -92 89 -123 121 -55
55 -57 56 -78 39 -20 -17 -21 -19 -5 -36 9 -10 11 -15 5 -11 -18 10 -16 -2 2
-20 8 -9 15 -11 15 -5 0 18 19 12 30 -9 10 -19 9 -20 -17 -15 -15 3 -22 2 -15
-1 7 -3 24 -17 37 -30 13 -13 33 -24 43 -24 11 0 25 -7 33 -16 7 -9 22 -14 35
-11 16 3 21 0 17 -10 -3 -7 -10 -13 -17 -14 -26 -3 -62 4 -73 13 -9 7 -13 7
-13 -1 0 -6 4 -11 10 -11 13 0 1 -27 -15 -34 -7 -2 -19 1 -25 9 -8 10 -6 17 7
30 16 17 16 17 -4 11 -17 -6 -25 -1 -36 21 -8 15 -12 34 -10 40 3 7 -2 16 -11
19 -11 4 -16 19 -16 45 0 21 -5 39 -10 39 -6 0 -2 10 9 21 18 20 19 23 4 45
-15 23 -26 29 -48 24 -5 -1 -7 2 -3 6 4 4 -7 18 -24 31 -24 17 -34 20 -41 10
-6 -8 -7 -4 -4 11 3 12 1 20 -4 16 -5 -3 -17 0 -26 5 -11 6 -13 11 -5 11 7 0
10 5 6 11 -5 8 -9 8 -14 -1 -4 -7 -13 -9 -20 -5 -9 6 -9 10 1 17 12 8 11 9 0
6 -24 -7 -25 -29 -2 -35 26 -7 27 -24 1 -41 -12 -7 -20 -8 -20 -2 0 5 5 10 10
10 16 0 12 17 -6 24 -8 3 -13 2 -9 -3 8 -13 -5 -41 -20 -41 -11 0 -45 31 -45
42 0 2 7 5 15 5 14 0 19 -10 16 -29 0 -5 4 -8 9 -8 13 0 13 6 0 31 -13 24 -58
26 -56 3 0 -9 -6 -19 -14 -21 -11 -4 -12 -2 -2 5 9 6 4 9 -17 9 -17 0 -27 -5
-24 -10 3 -5 0 -8 -7 -5 -7 2 -14 15 -14 29 -1 24 0 25 23 13 17 -9 30 -10 47
-2 13 6 24 14 25 17 0 3 2 14 4 24 2 11 -5 22 -18 28 -20 9 -20 9 3 4 14 -4
34 -9 45 -12 11 -3 0 9 -25 26 -52 36 -50 35 -75 17z m38 -13 c-7 -2 -19 -2
-25 0 -7 3 -2 5 12 5 14 0 19 -2 13 -5z m-83 -20 c-8 -4 -21 -12 -28 -20 -7
-7 -18 -13 -24 -13 -6 0 -1 9 12 20 13 11 30 20 39 19 13 0 14 -2 1 -6z m65
-123 c3 -5 2 -10 -4 -10 -5 0 -13 5 -16 10 -3 6 -2 10 4 10 5 0 13 -4 16 -10z
m235 -100 c0 -5 -4 -10 -10 -10 -5 0 -10 5 -10 10 0 6 5 10 10 10 6 0 10 -4
10 -10z m47 -12 c-3 -8 -6 -5 -6 6 -1 11 2 17 5 13 3 -3 4 -12 1 -19z m-21
-34 c-8 -7 -16 -19 -19 -26 -2 -7 -8 -9 -13 -5 -5 4 -2 12 5 17 8 4 11 15 8
23 -4 11 0 13 13 10 16 -4 17 -7 6 -19z m-46 2 c0 -3 -4 -8 -10 -11 -5 -3 -10
-1 -10 4 0 6 5 11 10 11 6 0 10 -2 10 -4z m117 -80 c3 -2 -5 -10 -18 -16 -19
-10 -24 -10 -34 4 -7 8 -15 13 -18 9 -4 -3 -7 -1 -7 5 0 11 66 9 77 -2z m154
-23 c13 -16 12 -17 -3 -4 -10 7 -18 15 -18 17 0 8 8 3 21 -13z m-131 -53 c6
-11 8 -20 6 -20 -3 0 -10 9 -16 20 -6 11 -8 20 -6 20 3 0 10 -9 16 -20z m100
-40 c0 -5 -2 -10 -4 -10 -3 0 -8 5 -11 10 -3 6 -1 10 4 10 6 0 11 -4 11 -10z
m-5 -30 c-3 -5 -12 -10 -18 -10 -7 0 -6 4 3 10 19 12 23 12 15 0z m35 -9 c0
-12 -20 -25 -27 -18 -7 7 6 27 18 27 5 0 9 -4 9 -9z m190 -51 c0 -5 -4 -10
-10 -10 -5 0 -10 5 -10 10 0 6 5 10 10 10 6 0 10 -4 10 -10z m-166 -16 c3 -8
2 -12 -4 -9 -6 3 -10 10 -10 16 0 14 7 11 14 -7z m54 -12 c-10 -2 -18 -8 -18
-13 0 -5 -5 -9 -10 -9 -6 0 -6 7 2 19 7 12 18 17 27 13 14 -6 14 -7 -1 -10z"/>
<path d="M3210 5580 c0 -5 5 -10 10 -10 6 0 10 5 10 10 0 6 -4 10 -10 10 -5 0
-10 -4 -10 -10z"/>
<path d="M2980 5879 c0 -5 5 -7 10 -4 6 3 10 8 10 11 0 2 -4 4 -10 4 -5 0 -10
-5 -10 -11z"/>
<path d="M5291 5544 c0 -11 3 -14 6 -6 3 7 2 16 -1 19 -3 4 -6 -2 -5 -13z"/>
<path d="M3320 5484 c0 -8 5 -12 10 -9 6 3 10 10 10 16 0 5 -4 9 -10 9 -5 0
-10 -7 -10 -16z"/>
<path d="M3624 5380 c3 -8 9 -22 12 -30 6 -18 43 -44 51 -36 3 3 -12 22 -32
43 -21 21 -35 31 -31 23z"/>
<path d="M3740 5222 c-8 -12 -13 -14 -16 -4 -7 14 -44 16 -44 2 0 -10 26 -15
61 -12 39 3 30 -77 -11 -101 -48 -29 -58 -23 -56 35 1 42 -2 53 -16 56 -15 3
-58 -25 -58 -39 0 -3 23 -30 50 -59 28 -29 50 -55 50 -58 0 -5 37 -51 91 -112
21 -24 39 -48 39 -53 0 -9 60 -91 94 -129 9 -10 16 -21 16 -24 0 -7 35 -52 80
-104 17 -19 43 -50 58 -68 21 -26 35 -33 65 -34 21 -1 42 3 48 9 8 8 -3 9 -35
6 -29 -4 -46 -2 -46 5 0 6 -8 13 -17 15 -15 4 -14 5 2 6 12 0 26 -4 33 -11 16
-16 16 4 0 22 -7 8 0 4 15 -10 23 -20 27 -21 21 -6 -6 16 -5 17 15 6 13 -6 25
-9 28 -6 11 11 -9 92 -28 116 -12 14 -18 20 -15 13 10 -19 -5 -43 -28 -43 -18
0 -21 6 -22 39 -1 22 -10 51 -22 68 -12 17 -19 33 -15 36 3 4 13 -8 23 -25 19
-35 44 -52 33 -21 -13 35 -55 92 -66 89 -7 -2 -9 -1 -4 1 11 7 8 18 -10 39
-10 10 -30 37 -45 59 -14 22 -39 55 -55 73 l-28 34 -2 -67 c-1 -40 2 -63 8
-60 5 4 12 -1 15 -9 8 -21 23 -20 47 2 19 16 19 16 13 -8 -3 -14 -3 -19 0 -12
3 6 10 10 15 7 10 -6 -11 -45 -24 -45 -4 0 -5 5 -2 10 3 6 2 10 -4 10 -5 0
-12 -6 -14 -12 -4 -10 -6 -10 -6 0 -1 6 -8 12 -16 12 -8 0 -15 5 -15 10 0 16
-21 11 -39 -9 -13 -15 -20 -17 -32 -7 -25 18 -38 49 -32 79 4 21 1 27 -11 27
-10 0 -14 -4 -11 -10 3 -5 1 -10 -4 -10 -6 0 -11 5 -11 10 0 6 -7 10 -15 10
-8 0 -15 7 -15 15 0 8 -4 15 -9 15 -4 0 -7 26 -6 58 3 73 3 71 18 68 23 -3 35
-16 39 -41 4 -20 0 -29 -21 -40 -25 -13 -23 -15 14 -15 3 0 5 3 4 6 0 4 10 12
23 18 23 12 26 24 13 61 -6 19 -6 19 5 1 15 -23 50 -58 50 -50 0 9 -84 123
-91 123 -4 1 -10 -10 -13 -24 -7 -27 -26 -34 -26 -10 0 8 4 15 9 15 22 0 20
34 -4 56 -23 21 -26 21 -35 6z m50 -26 c0 -3 -4 -8 -10 -11 -5 -3 -10 -1 -10
4 0 6 5 11 10 11 6 0 10 -2 10 -4z m-136 -31 c-4 -8 -8 -15 -10 -15 -2 0 -4 7
-4 15 0 8 4 15 10 15 5 0 7 -7 4 -15z m176 -19 c0 -3 -4 -8 -10 -11 -5 -3 -10
-1 -10 4 0 6 5 11 10 11 6 0 10 -2 10 -4z m-80 -95 c0 -5 -7 -11 -14 -14 -10
-4 -13 -1 -9 9 6 15 23 19 23 5z m230 -136 c0 -8 -4 -15 -9 -15 -5 0 -14 7
-21 15 -10 13 -9 15 9 15 12 0 21 -6 21 -15z m-40 -73 c0 -10 5 -23 10 -30 6
-6 7 -10 4 -7 -4 2 -15 0 -25 -5 -14 -8 -21 -6 -29 10 -6 12 -7 20 -1 20 5 0
11 -6 14 -12 2 -7 2 -1 0 15 -3 20 0 27 11 27 9 0 16 -8 16 -18z m118 -78 c12
-8 22 -22 22 -30 0 -8 4 -14 8 -14 4 0 8 -10 9 -22 0 -13 1 -27 3 -33 1 -5 2
-29 1 -52 -1 -32 -4 -41 -15 -37 -11 4 -13 18 -10 50 2 28 0 44 -7 44 -6 0 -9
-7 -5 -15 3 -8 4 -15 2 -15 -3 0 -13 -3 -23 -6 -14 -5 -15 -4 -3 4 12 9 12 14
-4 31 -11 12 -16 27 -12 38 4 9 4 14 0 10 -4 -4 -13 -2 -20 4 -8 7 -14 6 -20
-2 -4 -8 -3 -9 4 -5 7 4 12 3 12 -3 0 -5 -3 -12 -7 -14 -13 -8 -28 16 -28 43
0 18 5 24 18 22 9 -2 17 2 17 8 0 15 32 12 58 -6z m12 -154 c0 -5 -2 -10 -4
-10 -3 0 -8 5 -11 10 -3 6 -1 10 4 10 6 0 11 -4 11 -10z m130 -33 c0 -18 -2
-19 -10 -7 -13 20 -13 43 0 35 6 -3 10 -16 10 -28z"/>
<path d="M4014 4755 c-16 -12 -17 -14 -3 -15 9 0 19 7 23 15 7 19 5 19 -20 0z"/>
<path d="M5301 5184 c0 -11 3 -14 6 -6 3 7 2 16 -1 19 -3 4 -6 -2 -5 -13z"/>
<path d="M5311 5134 c0 -11 3 -14 6 -6 3 7 2 16 -1 19 -3 4 -6 -2 -5 -13z"/>
<path d="M5759 4703 c-13 -17 -13 -17 6 -3 11 8 22 16 24 17 2 2 0 3 -6 3 -6
0 -17 -8 -24 -17z"/>
<path d="M4310 4141 c0 -6 4 -13 10 -16 6 -3 7 1 4 9 -7 18 -14 21 -14 7z"/>
<path d="M8609 3825 c-72 -26 -149 -84 -240 -180 -68 -73 -124 -154 -202 -296
-38 -70 -137 -390 -167 -541 -13 -66 -8 -64 -125 -43 -166 30 -303 15 -469
-50 -117 -46 -188 -95 -249 -170 -62 -76 -82 -116 -98 -192 -11 -52 -10 -70 5
-133 l18 -72 -36 -71 c-42 -86 -55 -177 -45 -317 9 -124 44 -201 146 -323 21
-26 23 -38 23 -140 0 -167 27 -240 127 -347 31 -32 33 -39 33 -102 0 -100 27
-162 103 -237 127 -124 209 -165 387 -192 l83 -13 71 -71 c39 -39 93 -81 119
-94 47 -23 48 -24 29 -41 -12 -12 -24 -44 -31 -87 -22 -126 -29 -113 59 -113
l76 0 15 68 c8 37 13 73 13 80 -2 16 10 15 83 -7 35 -11 86 -22 115 -26 104
-12 103 -12 122 -65 l18 -50 104 0 c118 0 117 -1 84 76 -11 26 -19 49 -16 51
2 3 -5 19 -17 38 -12 18 -29 46 -39 63 -25 47 -55 60 -159 71 -107 11 -179 28
-292 73 -103 41 -152 76 -155 114 -1 20 -15 41 -44 66 -23 21 -45 38 -48 39
-3 1 -43 2 -90 3 -174 5 -312 70 -387 183 -11 16 -15 47 -14 103 1 93 -10 121
-74 190 -78 85 -79 88 -85 250 l-5 146 -37 49 c-92 122 -107 150 -123 225 -13
62 -14 90 -5 158 11 80 26 132 40 132 11 0 50 76 50 97 0 11 -9 46 -21 79 -46
133 -5 218 151 306 166 93 299 104 572 44 92 -20 188 -45 214 -56 69 -30 118
-27 143 9 12 16 21 39 21 51 0 59 -77 123 -164 137 -24 4 -36 11 -36 22 0 51
133 456 189 576 33 70 129 200 193 262 54 53 149 103 195 103 29 0 36 -5 48
-33 26 -63 28 -127 5 -262 -11 -71 -30 -166 -41 -210 -35 -137 -81 -387 -82
-446 0 -43 6 -67 28 -107 26 -48 99 -127 152 -163 21 -15 40 -66 167 -467 20
-61 65 -194 101 -295 132 -365 171 -460 241 -577 35 -58 78 -126 96 -151 59
-83 342 -450 375 -488 18 -20 43 -51 55 -68 13 -18 29 -33 36 -33 6 0 12 -9
12 -19 0 -11 3 -21 8 -23 4 -1 30 -33 57 -70 27 -38 52 -68 56 -68 3 0 33 -40
65 -90 l59 -90 156 0 156 0 -5 27 c-3 14 -18 40 -33 56 -18 19 -29 41 -29 58
0 27 -3 29 -37 29 -47 0 -60 8 -64 40 -4 24 -7 25 -79 28 -41 1 -77 7 -81 13
-3 6 -9 10 -13 10 -3 -1 -10 -1 -15 -1 -9 0 21 126 38 157 9 18 35 106 137
458 48 165 109 350 123 374 11 17 56 -13 236 -158 l130 -104 3 119 3 119 -43
38 c-66 57 -249 178 -280 184 -20 4 -60 40 -134 123 -117 130 -179 188 -337
311 -270 209 -390 291 -497 339 -66 29 -85 33 -162 33 -70 -1 -96 -5 -129 -22
-23 -12 -43 -21 -44 -19 -2 2 -21 75 -43 163 -23 88 -47 178 -55 200 l-14 40
52 60 c47 54 120 157 252 355 33 50 80 133 89 158 0 1 17 -4 36 -12 58 -25
246 -64 365 -77 180 -20 445 15 638 84 63 23 184 86 248 129 l57 39 0 140 0
141 -47 -40 c-88 -72 -196 -144 -262 -174 -164 -74 -394 -115 -581 -105 -118
7 -322 54 -373 86 -82 53 -95 56 -138 41 -44 -16 -44 -16 -113 -163 -61 -131
-256 -414 -376 -547 -62 -69 -68 -50 -36 122 15 79 42 208 61 288 58 247 70
333 57 425 -15 106 -26 142 -61 197 -23 36 -39 49 -77 62 -58 19 -193 20 -245
1z m879 -1775 c85 -41 146 -79 197 -125 17 -14 66 -54 110 -88 208 -159 313
-251 409 -358 22 -24 53 -58 69 -76 l30 -32 -31 -78 c-57 -143 -152 -435 -152
-467 0 -14 -80 -298 -86 -305 -5 -5 -50 47 -104 119 -57 76 -212 273 -220 280
-12 10 -70 101 -70 111 0 5 -4 9 -9 9 -13 0 -77 91 -121 174 -40 75 -150 345
-150 368 0 8 -4 18 -9 24 -5 5 -16 31 -25 58 -9 27 -32 90 -50 140 -19 50 -39
112 -45 138 -11 46 -10 49 21 92 56 77 102 80 236 16z"/>
<path d="M5524 3649 c-19 -22 -19 -22 4 -8 12 8 22 17 22 21 0 12 -6 9 -26
-13z"/>
<path d="M7573 2173 c-32 -6 -73 -52 -73 -82 0 -15 7 -36 15 -47 30 -43 77
-55 269 -67 167 -10 187 -9 229 7 33 12 48 25 55 45 12 34 -6 72 -42 89 -38
17 -178 40 -291 47 -55 4 -109 8 -120 10 -11 1 -30 1 -42 -2z"/>
<path d="M7785 1541 c-103 -25 -143 -112 -80 -174 27 -27 92 -21 152 13 81 46
94 90 44 141 -30 30 -56 34 -116 20z"/>
<path d="M4465 1444 c-17 -18 -26 -43 -32 -92 -14 -114 -10 -821 6 -977 8 -77
19 -192 25 -255 l11 -115 73 -3 c70 -3 72 -2 72 21 0 13 -7 120 -16 238 -18
235 -25 895 -11 1061 8 96 8 98 -17 123 -34 34 -79 33 -111 -1z"/>
<path d="M4 1018 c5 -287 5 -224 0 -548 -4 -247 -3 -273 10 -254 23 32 196
401 217 463 36 103 24 160 -61 285 -26 39 -70 117 -98 173 -28 56 -56 104 -62
108 -8 5 -9 -63 -6 -227z"/>
</g>
</svg>
